<?xml version="1.0" standalone="no"?><!DOCTYPE svg PUBLIC "-//W3C//DTD SVG 1.1//EN" "http://www.w3.org/Graphics/SVG/1.1/DTD/svg11.dtd"><svg t="1659332328943" class="icon" viewBox="0 0 1024 1024" version="1.1" xmlns="http://www.w3.org/2000/svg" p-id="3197" xmlns:xlink="http://www.w3.org/1999/xlink" width="200" height="200"><defs><style type="text/css">@font-face { font-family: element-icons; src: url("chrome-extension://moombeodfomdpjnpocobemoiaemednkg/fonts/element-icons.woff") format("woff"), url("chrome-extension://moombeodfomdpjnpocobemoiaemednkg/fonts/element-icons.ttf ") format("truetype"); }
</style></defs><path d="M1000.85 554.77c13.92-9.15 23.15-24.86 23.15-42.77 0-17.91-9.23-33.62-23.15-42.77 12.12-11.43 18.48-28.5 15.37-46.14-3.11-17.64-14.92-31.51-30.22-38.1 9.95-13.36 13.25-31.28 7.13-48.11s-20.17-28.43-36.38-32.27c7.48-14.89 7.62-33.11-1.34-48.61-8.95-15.51-24.8-24.5-41.43-25.46 4.79-15.96 1.75-33.93-9.76-47.64-11.51-13.72-28.68-19.82-45.23-17.88 1.94-16.55-4.16-33.71-17.88-45.23-13.72-11.51-31.68-14.54-47.64-9.76-0.96-16.63-9.96-32.48-25.46-41.43s-33.73-8.82-48.61-1.34c-3.84-16.21-15.44-30.26-32.27-36.38-16.83-6.12-34.75-2.83-48.11 7.13-6.59-15.3-20.46-27.12-38.1-30.23-17.64-3.11-34.71 3.25-46.14 15.37C545.62 9.23 529.91 0 512 0s-33.62 9.23-42.77 23.15c-11.43-12.12-28.5-18.48-46.14-15.37-17.64 3.11-31.51 14.92-38.1 30.23-13.36-9.96-31.28-13.25-48.11-7.13s-28.44 20.17-32.27 36.38c-14.89-7.48-33.11-7.62-48.61 1.34s-24.5 24.8-25.46 41.43c-15.96-4.79-33.93-1.75-47.64 9.76-13.72 11.51-19.82 28.68-17.88 45.23-16.55-1.94-33.71 4.16-45.23 17.88-11.51 13.72-14.54 31.68-9.76 47.64-16.64 0.96-32.48 9.95-41.43 25.46-8.95 15.51-8.82 33.73-1.34 48.61-16.21 3.84-30.26 15.44-36.38 32.27-6.12 16.83-2.83 34.75 7.13 48.11-15.3 6.59-27.11 20.46-30.22 38.1-3.11 17.64 3.25 34.71 15.37 46.14C9.23 478.38 0 494.09 0 512c0 17.91 9.23 33.62 23.15 42.77-12.12 11.43-18.48 28.5-15.37 46.14 3.11 17.64 14.92 31.5 30.22 38.1-9.95 13.36-13.25 31.28-7.13 48.11s20.17 28.44 36.38 32.27c-7.48 14.89-7.62 33.11 1.34 48.61 8.95 15.51 24.8 24.5 41.43 25.46-4.79 15.96-1.75 33.92 9.76 47.64 11.51 13.72 28.68 19.82 45.23 17.88-1.94 16.55 4.16 33.71 17.88 45.22 13.72 11.51 31.68 14.54 47.64 9.76 0.96 16.63 9.96 32.48 25.46 41.43 15.51 8.95 33.73 8.82 48.61 1.34 3.84 16.21 15.44 30.26 32.27 36.38 16.83 6.12 34.75 2.83 48.11-7.13 6.59 15.3 20.46 27.12 38.1 30.22s34.71-3.25 46.14-15.37c9.15 13.92 24.86 23.15 42.77 23.15 17.91 0 33.62-9.23 42.77-23.15 11.43 12.12 28.5 18.48 46.14 15.37 17.64-3.11 31.5-14.92 38.1-30.22 13.36 9.96 31.28 13.25 48.11 7.13s28.44-20.17 32.27-36.38c14.89 7.48 33.11 7.62 48.61-1.34 15.51-8.95 24.5-24.8 25.46-41.43 15.96 4.78 33.93 1.75 47.64-9.76 13.72-11.51 19.82-28.68 17.88-45.22 16.55 1.94 33.71-4.16 45.22-17.88 11.51-13.72 14.54-31.68 9.76-47.64 16.63-0.96 32.48-9.96 41.43-25.46 8.95-15.51 8.82-33.73 1.34-48.61 16.21-3.84 30.26-15.44 36.38-32.27 6.12-16.83 2.83-34.75-7.13-48.11 15.3-6.59 27.11-20.46 30.22-38.1 3.14-17.64-3.22-34.71-15.34-46.14z" fill="#25467A" p-id="3198"></path><path d="M951.97 550.49c12.53-8.24 20.83-22.38 20.83-38.49 0-16.12-8.3-30.26-20.83-38.49 10.91-10.29 16.63-25.65 13.83-41.52-2.8-15.87-13.43-28.35-27.2-34.29 8.96-12.03 11.93-28.15 6.41-43.3-5.51-15.14-18.15-25.59-32.74-29.04 6.74-13.4 6.86-29.8-1.2-43.75-8.06-13.96-22.32-22.05-37.29-22.92 4.31-14.36 1.58-30.53-8.78-42.88-10.36-12.35-25.81-17.84-40.7-16.09 1.75-14.89-3.75-30.34-16.09-40.7-12.35-10.36-28.51-13.09-42.88-8.78-0.87-14.97-8.96-29.23-22.92-37.29s-30.35-7.94-43.75-1.2c-3.45-14.59-13.9-27.23-29.04-32.74-15.14-5.51-31.27-2.55-43.3 6.41-5.93-13.77-18.42-24.4-34.29-27.2-15.87-2.8-31.24 2.92-41.52 13.83C542.26 59.5 528.12 51.2 512 51.2c-16.12 0-30.26 8.3-38.49 20.84-10.29-10.91-25.65-16.63-41.52-13.83-15.87 2.8-28.35 13.43-34.29 27.2-12.03-8.96-28.15-11.93-43.3-6.41-15.14 5.51-25.59 18.15-29.04 32.74-13.4-6.74-29.8-6.86-43.75 1.2s-22.05 22.32-22.92 37.29c-14.36-4.31-30.53-1.58-42.88 8.78-12.35 10.36-17.84 25.81-16.09 40.7-14.89-1.75-30.34 3.75-40.7 16.09-10.36 12.35-13.09 28.51-8.78 42.88-14.97 0.87-29.23 8.96-37.29 22.92-8.06 13.96-7.94 30.35-1.2 43.75-14.59 3.45-27.23 13.9-32.74 29.04-5.51 15.14-2.55 31.27 6.41 43.3-13.77 5.93-24.4 18.42-27.2 34.29-2.8 15.87 2.92 31.24 13.83 41.52C59.5 481.74 51.2 495.88 51.2 512s8.3 30.26 20.84 38.49c-10.91 10.29-16.63 25.65-13.83 41.53 2.8 15.87 13.43 28.35 27.2 34.29-8.96 12.02-11.92 28.15-6.41 43.3s18.15 25.59 32.74 29.04c-6.74 13.4-6.86 29.79 1.2 43.75s22.32 22.05 37.29 22.92c-4.31 14.36-1.58 30.53 8.78 42.88 10.36 12.35 25.81 17.84 40.7 16.09-1.75 14.89 3.75 30.34 16.09 40.7 12.35 10.36 28.51 13.09 42.88 8.78 0.87 14.97 8.96 29.23 22.92 37.29 13.96 8.06 30.35 7.94 43.75 1.2 3.45 14.59 13.9 27.23 29.04 32.74 15.14 5.51 31.27 2.55 43.3-6.41 5.93 13.77 18.42 24.4 34.29 27.2 15.87 2.8 31.24-2.92 41.52-13.83 8.24 12.53 22.38 20.83 38.49 20.83 16.12 0 30.26-8.3 38.49-20.83 10.29 10.91 25.65 16.63 41.52 13.83 15.87-2.8 28.35-13.43 34.29-27.2 12.03 8.96 28.15 11.93 43.3 6.41s25.59-18.15 29.04-32.74c13.4 6.74 29.8 6.86 43.75-1.2 13.96-8.06 22.05-22.32 22.92-37.29 14.36 4.31 30.53 1.58 42.88-8.78 12.35-10.36 17.84-25.81 16.09-40.7 14.89 1.75 30.34-3.75 40.7-16.09 10.36-12.35 13.09-28.51 8.78-42.88 14.97-0.87 29.23-8.96 37.29-22.92 8.06-13.96 7.94-30.35 1.2-43.75 14.59-3.45 27.23-13.9 32.74-29.04 5.51-15.14 2.55-31.27-6.41-43.3 13.77-5.93 24.4-18.42 27.2-34.29 2.83-15.87-2.89-31.24-13.8-41.53z" fill="#F3B164" p-id="3199"></path><path d="M866.42 543.01c10.1-6.63 16.78-18.02 16.78-31.01 0-12.98-6.69-24.37-16.78-31.01 8.79-8.29 13.4-20.66 11.14-33.45-2.25-12.79-10.82-22.84-21.91-27.62 7.22-9.69 9.61-22.68 5.17-34.88s-14.62-20.61-26.38-23.4c5.43-10.79 5.52-24-0.97-35.25-6.49-11.24-17.98-17.76-30.04-18.46 3.47-11.57 1.27-24.6-7.07-34.54-8.35-9.94-20.79-14.37-32.79-12.96 1.41-12-3.02-24.44-12.96-32.79-9.94-8.35-22.97-10.54-34.54-7.07-0.7-12.06-7.22-23.55-18.46-30.04s-24.45-6.39-35.25-0.97c-2.78-11.76-11.2-21.94-23.4-26.38-12.2-4.44-25.19-2.05-34.88 5.17-4.78-11.09-14.84-19.66-27.62-21.91-12.79-2.25-25.16 2.36-33.45 11.14-6.63-10.1-18.02-16.78-31.01-16.78s-24.37 6.69-31.01 16.78c-8.29-8.79-20.66-13.4-33.45-11.14-12.79 2.25-22.84 10.82-27.62 21.91-9.69-7.22-22.68-9.61-34.88-5.17-12.2 4.44-20.62 14.62-23.4 26.38-10.79-5.43-24-5.52-35.25 0.97s-17.76 17.98-18.46 30.04c-11.57-3.47-24.6-1.27-34.54 7.07-9.95 8.35-14.37 20.79-12.96 32.79-12-1.41-24.44 3.02-32.79 12.96-8.34 9.95-10.54 22.97-7.07 34.54-12.06 0.7-23.55 7.22-30.04 18.46-6.49 11.24-6.39 24.45-0.97 35.25-11.76 2.78-21.94 11.2-26.38 23.4-4.44 12.2-2.05 25.19 5.17 34.88-11.09 4.78-19.66 14.84-21.91 27.62-2.25 12.79 2.36 25.16 11.14 33.45-10.1 6.63-16.78 18.02-16.78 31.01 0 12.98 6.69 24.37 16.78 31.01-8.79 8.29-13.4 20.67-11.14 33.45 2.25 12.79 10.82 22.84 21.91 27.62-7.22 9.69-9.61 22.68-5.17 34.88 4.44 12.2 14.62 20.62 26.38 23.4-5.43 10.79-5.52 24 0.97 35.25 6.49 11.24 17.98 17.76 30.04 18.46-3.47 11.57-1.27 24.6 7.07 34.54 8.35 9.95 20.79 14.37 32.79 12.97-1.41 12 3.02 24.44 12.97 32.79 9.94 8.34 22.97 10.54 34.54 7.07 0.7 12.06 7.22 23.55 18.46 30.04 11.24 6.49 24.45 6.39 35.25 0.97 2.78 11.76 11.2 21.94 23.4 26.38 12.2 4.44 25.19 2.05 34.88-5.17 4.78 11.09 14.84 19.66 27.62 21.91 12.79 2.25 25.16-2.35 33.45-11.14 6.63 10.1 18.02 16.78 31.01 16.78s24.37-6.69 31.01-16.78c8.29 8.79 20.66 13.4 33.45 11.14 12.79-2.25 22.84-10.82 27.62-21.91 9.69 7.22 22.68 9.61 34.88 5.17 12.2-4.44 20.62-14.62 23.4-26.38 10.79 5.43 24 5.52 35.25-0.97 11.24-6.49 17.76-17.98 18.46-30.04 11.57 3.47 24.6 1.27 34.54-7.07 9.95-8.35 14.37-20.79 12.97-32.79 12 1.41 24.44-3.02 32.79-12.97 8.34-9.95 10.54-22.97 7.07-34.54 12.06-0.7 23.55-7.22 30.04-18.46 6.49-11.24 6.39-24.45 0.97-35.25 11.76-2.78 21.94-11.2 26.38-23.4s2.05-25.19-5.17-34.88c11.09-4.78 19.66-14.84 21.91-27.62 2.24-12.79-2.37-25.17-11.16-33.45z" fill="#FFD191" p-id="3200"></path><path d="M512 550.4c-35.29 0-64-28.71-64-64 0-7.07 5.73-12.8 12.8-12.8s12.8 5.73 12.8 12.8c0 21.18 17.23 38.4 38.4 38.4s38.4-17.22 38.4-38.4c0-7.07 5.73-12.8 12.8-12.8s12.8 5.73 12.8 12.8c0 35.29-28.71 64-64 64z" fill="#25467A" p-id="3201"></path><path d="M384 384m-38.4 0a38.4 38.4 0 1 0 76.8 0 38.4 38.4 0 1 0-76.8 0Z" fill="#25467A" p-id="3202"></path><path d="M640 384m-38.4 0a38.4 38.4 0 1 0 76.8 0 38.4 38.4 0 1 0-76.8 0Z" fill="#25467A" p-id="3203"></path><path d="M332.8 448h-51.2c-14.14 0-25.6 11.46-25.6 25.6s11.46 25.6 25.6 25.6h51.2c14.14 0 25.6-11.46 25.6-25.6S346.94 448 332.8 448zM742.4 448h-51.2c-14.14 0-25.6 11.46-25.6 25.6s11.46 25.6 25.6 25.6h51.2c14.14 0 25.6-11.46 25.6-25.6S756.54 448 742.4 448z" fill="#FF806C" p-id="3204"></path><path d="M243.2 595.2m-19.2 0a19.2 19.2 0 1 0 38.4 0 19.2 19.2 0 1 0-38.4 0Z" fill="#F3B164" p-id="3205"></path><path d="M345.6 595.2m-19.2 0a19.2 19.2 0 1 0 38.4 0 19.2 19.2 0 1 0-38.4 0Z" fill="#F3B164" p-id="3206"></path><path d="M294.4 659.2m-19.2 0a19.2 19.2 0 1 0 38.4 0 19.2 19.2 0 1 0-38.4 0Z" fill="#F3B164" p-id="3207"></path><path d="M678.4 595.2m-19.2 0a19.2 19.2 0 1 0 38.4 0 19.2 19.2 0 1 0-38.4 0Z" fill="#F3B164" p-id="3208"></path><path d="M780.8 595.2m-19.2 0a19.2 19.2 0 1 0 38.4 0 19.2 19.2 0 1 0-38.4 0Z" fill="#F3B164" p-id="3209"></path><path d="M729.6 659.2m-19.2 0a19.2 19.2 0 1 0 38.4 0 19.2 19.2 0 1 0-38.4 0Z" fill="#F3B164" p-id="3210"></path></svg>